<svg id="Layer_1" data-name="Layer 1" xmlns="http://www.w3.org/2000/svg" viewBox="0 0 1231.98 268.64"><defs><style>.cls-1{fill:#24378d;}</style></defs><path class="cls-1" d="M335.4,339.29c.27,3.9.47,6.9.76,11.11,10.56-11.25,23.54-11.23,36.68-11.16,29.88.15,59.77,0,89.66.07,30.43.11,51.07,16.25,58,45.32a51,51,0,0,1,1.35,11.82c.1,42.28-.07,84.57.21,126.85,0,6.5-1.9,8.34-8.24,8.09-12.12-.47-24.27-.14-37.15-.14-.19-3.11-.46-5.65-.47-8.19q0-55.78,0-111.58c0-19.84-10.46-30.28-30.3-30.29q-40.52,0-81,0c-18,0-29,11-29.06,28.9q-.1,56.13,0,112.25v8.9H303.59c-14.31,0-14.31,0-14.31-14.29,0-56.68.09-113.36-.13-170,0-6.08,1.59-8,7.76-7.78C309.49,339.62,322.09,339.29,335.4,339.29Z" transform="translate(340.98 -263.42)"/><path class="cls-1" d="M-203.11,339.31c.29,3.83.49,6.62.79,10.69,11.25-11.29,24.78-10.81,38.31-10.75,29.23.12,58.46-.12,87.69.1,18.95.14,35.91,5.43,47.64,21.57a60.83,60.83,0,0,1,12.17,36.54q-.06,62.79,0,125.57v7.71H-61.92v-7.4q0-55.82,0-111.62c0-19.72-10.73-30.52-30.26-30.53-26.13,0-52.29.76-78.39-.24-21.78-.84-32.76,13.68-32.36,32.77.77,36.74.09,73.51.36,110.27,0,6-1.71,7.64-7.51,7.39-10.39-.45-20.83-.48-31.21,0-6.28.29-8.27-1.5-8.23-8,.26-51.38.14-102.75.14-154.13,0-8.42-.19-16.84.19-25.24.07-1.61,2.39-4.45,3.72-4.48C-231.56,339.18-217.65,339.31-203.11,339.31Z" transform="translate(340.98 -263.42)"/><path class="cls-1" d="M767,465.88l-43.63,43.05C716,516.23,709.77,526,700.9,530.1c-7.89,3.65-18.67,1.07-28.18,1.14s-18.8,0-28.21,0c-.15-.55-.31-1.09-.47-1.64l93.12-94.11-93.27-94.74c.94-.66,1.43-1.3,1.92-1.3,17.27-.09,34.54-.28,51.81,0,2.42,0,5.26,2,7.14,3.91q28.18,28.19,56,56.68c1.84,1.88,3,4.4,4.09,6.05,10.25-9.83,19.14-18.13,27.78-26.68,12.43-12.31,24.65-24.82,37.05-37.16,1.32-1.3,3.24-2.82,4.9-2.84,18.07-.2,36.15-.13,56.34-.13l-94.85,96.11L891,531.25H870.59c-11.07,0-22.16.28-33.21-.17a14.8,14.8,0,0,1-9.06-3.77c-19.34-19.18-38.39-38.65-57.54-58C769.55,468.05,768.2,466.93,767,465.88Z" transform="translate(340.98 -263.42)"/><path class="cls-1" d="M91.43,531.23c-15.05,0-28.74-.06-42.42,0-4.45,0-4.19-2.9-4.18-5.85V381.18c-9.27,0-17.83-.15-26.38.08-3.67.1-5.58-1.14-6.81-4.66-5-14.14-11.83-27.09-26-37.17H44.83c0-8,0-15.25,0-22.47.07-27.43,17-49,44.32-51.75,22.28-2.23,45-.46,67.91-.46V304.1c-16.67,0-33-.08-49.32,0-9,.06-15.42,4.73-16.17,12.57-.7,7.18-.15,14.48-.15,22.49h65.66V381H91.43Z" transform="translate(340.98 -263.42)"/><path class="cls-1" d="M-341,531.25V284.93h45.76c.13,2.4.37,4.56.37,6.71q0,116,.13,231.92c0,6.05-1.55,8.08-7.78,7.84C-315.06,530.91-327.66,531.25-341,531.25Z" transform="translate(340.98 -263.42)"/><path class="cls-1" d="M243,531.41c-14.69,0-29,.07-43.36-.14-1.11,0-2.61-1.84-3.15-3.15s-.17-3-.17-4.6c0-58.68.13-117.37-.18-176.06,0-7,2.1-8.57,8.62-8.31,12.56.48,25.15.14,38.24.14Z" transform="translate(340.98 -263.42)"/><path class="cls-1" d="M614,530.78H568.22V339.69H614Z" transform="translate(340.98 -263.42)"/><path class="cls-1" d="M243.51,263.44c0,12.84.15,24.55-.18,36.26,0,1.49-2.56,4.15-4,4.19-12.84.33-25.69.12-38.53.24-3.59,0-4.56-1.64-4.53-4.87.09-10.41-.1-20.82.18-31.22,0-1.56,2-4.38,3.13-4.4C213.93,263.33,228.27,263.44,243.51,263.44Z" transform="translate(340.98 -263.42)"/><path class="cls-1" d="M614.09,263.84v39.78h-45.7V263.84Z" transform="translate(340.98 -263.42)"/></svg>