<svg id="Layer_1" data-name="Layer 1" xmlns="http://www.w3.org/2000/svg" viewBox="0 0 52.73 61.48"><defs><style>.cls-1{fill:#3f4999;}</style></defs><path class="cls-1" d="M281.09,529a44.69,44.69,0,0,1-7.62,12.31,17.67,17.67,0,0,1-2.85,2.54,7.54,7.54,0,0,1-8,.65,23.3,23.3,0,0,0-4-1.46,13.29,13.29,0,0,0-9.08,1.29,8.08,8.08,0,0,1-9.37-1,20.1,20.1,0,0,1-2.8-2.81,39.18,39.18,0,0,1-8.11-16.59c-1.1-5.07-1.37-10.17.6-15.08a16.26,16.26,0,0,1,12-10.34,12.79,12.79,0,0,1,6.87.56c1.64.54,3.27,1.1,4.93,1.56a9.24,9.24,0,0,0,5.64-.38,45.33,45.33,0,0,1,5.19-1.65,13.62,13.62,0,0,1,11.78,2.92c1.11.87,2.07,1.91,3.13,2.91C269.13,510,270.53,524.83,281.09,529Z" transform="translate(-228.37 -483.84)"/><path class="cls-1" d="M253.87,498.71a12,12,0,0,1,2.55-9.13,14.32,14.32,0,0,1,9.25-5.71c.43-.07.73-.08.77.52a13.69,13.69,0,0,1-10.3,14C255.42,498.56,254.67,498.6,253.87,498.71Z" transform="translate(-228.37 -483.84)"/></svg>