<svg id="Layer_1" data-name="Layer 1" xmlns="http://www.w3.org/2000/svg" viewBox="0 0 143.81 21.99"><defs><style>.cls-1{fill:#23398e;}</style></defs><path class="cls-1" d="M234.59,530.31h-5.14Q227.73,521,226,511.78h-.1a1.09,1.09,0,0,0-.07.24c0,.1,0,.21,0,.32q-.06,6.81-.11,13.62c0,1.23,0,2.45,0,3.68,0,.2,0,.41,0,.6a28.27,28.27,0,0,1-5,0c0-3.36.13-6.72.17-10.09s.16-6.76.24-10.19a2.88,2.88,0,0,1,.48-.09h7.35c.13,0,.25,0,.45.06.88,5.23,1.68,10.48,2.56,15.71l.13,0c.05-.19.11-.37.15-.56q1.16-7.25,2.32-14.5c0-.21.09-.41.13-.6a65.35,65.35,0,0,1,8.28,0l.45,20.19a26.24,26.24,0,0,1-5,.08c0-.22-.05-.47-.05-.71,0-2.43,0-4.86,0-7.29l-.09-9.95a1.89,1.89,0,0,0-.1-.56c-.49,2-.83,4.07-1.22,6.1s-.78,4.15-1.16,6.23Z" transform="translate(-181.57 -509.21)"/><path class="cls-1" d="M300.66,526.1c-.09-5.36-.18-10.72-.26-16.05a21.31,21.31,0,0,1,4.91-.08c.08,1.66,0,3.34,0,5s0,3.34,0,5v10a64.29,64.29,0,0,1-7.21.07c-.88-2.76-1.7-5.56-2.56-8.36s-1.7-5.59-2.59-8.49c-.15.44-.1,5.54,0,8.43s.09,5.57.14,8.34a27.48,27.48,0,0,1-4.9.07c0-.23,0-.47,0-.71q0-3.87,0-7.74V510a9.16,9.16,0,0,1,1.94-.09h5.61l4.76,16.24Z" transform="translate(-181.57 -509.21)"/><path class="cls-1" d="M268.08,509.89h5c0,.33,0,.58,0,.82v14.71a2,2,0,0,0,2.22,2,1.89,1.89,0,0,0,1.91-2.07q0-5.23,0-10.46v-4.18c0-.23,0-.46,0-.66a23.68,23.68,0,0,1,5.05,0c0,.19,0,.39,0,.6,0,4.77,0,9.55,0,14.32a9.67,9.67,0,0,1-.24,2.07,4.56,4.56,0,0,1-2.59,3.17,7.5,7.5,0,0,1-2.74.74,13.72,13.72,0,0,1-4.47-.23,7.15,7.15,0,0,1-1.08-.35,4.76,4.76,0,0,1-3.14-4.36c-.06-.73-.08-1.47-.08-2.21q0-6.5,0-13C268,510.5,268.06,510.23,268.08,509.89Z" transform="translate(-181.57 -509.21)"/><path class="cls-1" d="M320.19,521.81h-1.95v-2.76a55.84,55.84,0,0,1,7.1,0c0,.15,0,.32,0,.48,0,1.67,0,3.34,0,5a11.11,11.11,0,0,1-.22,2.07,4.56,4.56,0,0,1-2.45,3.21,7.58,7.58,0,0,1-2.58.83,11.81,11.81,0,0,1-5.32-.32,7.25,7.25,0,0,1-1.55-.71,4.63,4.63,0,0,1-2.25-3.5,16,16,0,0,1-.13-2c0-2.72,0-5.45,0-8.17a13,13,0,0,1,.24-2.33,4.78,4.78,0,0,1,2.7-3.47,8.91,8.91,0,0,1,3.36-.81,11.47,11.47,0,0,1,4.08.36,8,8,0,0,1,1.63.68A4.5,4.5,0,0,1,325,513.1a8.08,8.08,0,0,1,.27,3.22h-5c0-.17-.05-.33-.06-.49s0-.55,0-.83a1.82,1.82,0,0,0-1.07-1.85,2.41,2.41,0,0,0-2.47.19,1.68,1.68,0,0,0-.71,1.16,6.34,6.34,0,0,0-.1,1.06q0,4.58,0,9.13c0,.13,0,.26,0,.38a2.12,2.12,0,0,0,2.69,2.08,1.83,1.83,0,0,0,1.7-1.76c.07-1.11,0-2.23,0-3.35C320.3,522,320.25,521.93,320.19,521.81Z" transform="translate(-181.57 -509.21)"/><path class="cls-1" d="M195.81,515.7h-4.93a3.69,3.69,0,0,1-.08-.46c0-.34,0-.68,0-1a2,2,0,0,0-3.82-.33,2,2,0,0,0,.55,2.15,13.23,13.23,0,0,0,1.76,1.23c.93.55,1.91,1,2.83,1.56a21.69,21.69,0,0,1,2.2,1.48,4.82,4.82,0,0,1,2,4.17,18.12,18.12,0,0,1-.19,2.45,4.59,4.59,0,0,1-2.46,3.28,7.93,7.93,0,0,1-2.58.82,12.47,12.47,0,0,1-5.16-.22,7.64,7.64,0,0,1-1.64-.64,4.87,4.87,0,0,1-2.65-4.06,12.91,12.91,0,0,1,0-2.24,33.4,33.4,0,0,1,5.34-.06,5.63,5.63,0,0,1,.05.59c0,.49,0,1,0,1.46a1.63,1.63,0,0,0,1.25,1.57,3.54,3.54,0,0,0,1.37.1A2.12,2.12,0,0,0,191,524.3a4.11,4.11,0,0,0-1-1,15.43,15.43,0,0,0-1.75-1.14c-.93-.54-1.89-1-2.81-1.6a16.83,16.83,0,0,1-1.84-1.33,5,5,0,0,1-1.85-4.25c0-.4,0-.8.11-1.2a4.78,4.78,0,0,1,3.3-3.9,11.12,11.12,0,0,1,4.61-.59,9.35,9.35,0,0,1,2.68.45,8.72,8.72,0,0,1,1.48.7,3.94,3.94,0,0,1,1.78,2.52A11.27,11.27,0,0,1,195.81,515.7Z" transform="translate(-181.57 -509.21)"/><path class="cls-1" d="M248.58,523.69h5.24c0,.18.05.34.06.5,0,.41,0,.81,0,1.21a3.76,3.76,0,0,0,.1.75,1.82,1.82,0,0,0,1.92,1.33c1.13,0,1.8-.35,2.07-1.19a2.31,2.31,0,0,0-.6-2.62,10.24,10.24,0,0,0-1.51-1.13c-.92-.57-1.88-1-2.81-1.61-.74-.44-1.47-.91-2.16-1.42a5.38,5.38,0,0,1-2.11-5.66,4.73,4.73,0,0,1,3.28-3.91,11.32,11.32,0,0,1,4.8-.57,10.15,10.15,0,0,1,2.55.47,4.27,4.27,0,0,1,3.14,3.53,16.6,16.6,0,0,1,0,2.34,27.55,27.55,0,0,1-4.82,0c0-.14,0-.3-.05-.46s0-.47,0-.7a2,2,0,0,0-3.05-1.62,2,2,0,0,0-.49,2.84,4,4,0,0,0,.94.84c.72.47,1.49.88,2.24,1.31.93.54,1.88,1,2.79,1.63a11.21,11.21,0,0,1,1.66,1.36,4.22,4.22,0,0,1,1.3,2.74,10.54,10.54,0,0,1-.13,3.22,4.64,4.64,0,0,1-2.34,3.16,7.46,7.46,0,0,1-2.51.85,12.62,12.62,0,0,1-5.4-.23,6.72,6.72,0,0,1-1.35-.52,4.84,4.84,0,0,1-2.76-4.25C248.54,525.19,248.58,524.47,248.58,523.69Z" transform="translate(-181.57 -509.21)"/><path class="cls-1" d="M216.31,530.34c-1.74,0-3.48,0-5.3,0l-2.76-18.74h-.14c-.32,1.53-.49,3.1-.74,4.64s-.46,3.14-.7,4.7-.48,3.09-.71,4.63-.47,3.12-.7,4.66a36.4,36.4,0,0,1-5.34,0c0-.49,3.36-19.16,3.71-20.34a4.75,4.75,0,0,1,.57-.06h7.86c.17,0,.34,0,.49,0C212.78,510.44,216.33,529.63,216.31,530.34Z" transform="translate(-181.57 -509.21)"/></svg>