<svg id="Layer_1" data-name="Layer 1" xmlns="http://www.w3.org/2000/svg" viewBox="0 0 1689.6 314.22"><defs><style>.cls-1{fill:#2a4697;}</style></defs><path class="cls-1" d="M979.85,532.93c-27.65,0-55.32-.73-82.94.18-34.92,1.15-76.8-25.23-77.85-76.27q-1.66-80.83,0-161.73C820,247.48,858,218.48,897,219q83.44,1,166.92,0c33.78-.41,76.1,25.53,76.54,76.3.47,53.91.35,107.83,0,161.74-.23,36.46-23.84,65.72-59.22,74.15-5.63,1.34-11.6,1.24-17.42,1.78a20.59,20.59,0,0,1-2.08,0Zm76.86-156.22V309.35c0-.69,0-1.38,0-2.07-.69-30.84-20.41-50.37-51-50.43-18.65,0-37.31-.22-56,.06a46.46,46.46,0,0,0-45.64,41.31A153.68,153.68,0,0,0,903,315.77q-.13,60.11,0,120.21a156.12,156.12,0,0,0,1.07,17.55c2.8,24.16,21.91,41.35,46.36,41.57q29.53.28,59.06,0c17.27-.14,30.33-8.08,39.64-22.41,5.66-8.7,7.49-18.48,7.53-28.64C1056.76,421.61,1056.71,399.16,1056.71,376.71Z" transform="translate(548.84 -218.92)"/><path class="cls-1" d="M451.74,375.25v-142q0-3.62,0-7.25c0-4.74,2.57-6.87,7.18-6.83,2.07,0,4.14,0,6.22,0,76.35,0,152.71.42,229.07-.2,35.48-.28,67.73,24,75.7,58.68A69.5,69.5,0,0,1,771.61,293q.17,114.54.08,229.07c0,10.27-.55,10.82-10.31,10.87q-30.57.15-61.15,0c-10.28,0-11-.68-11-11.48-.07-53.55,0-107.11-.08-160.66,0-19.34.48-38.74-1-58-2.08-27.33-21.18-44.92-48.48-45.37-31.09-.5-62.19-.2-93.29,0-9.42,0-10.87,1.63-11.08,10.86s-.07,18.66-.07,28q0,111.42,0,222.85c0,13.83,0,13.85-13.59,13.87q-28,0-56,0c-13.93,0-13.95,0-13.95-13.6Q451.74,447.29,451.74,375.25Z" transform="translate(548.84 -218.92)"/><path class="cls-1" d="M-17,532.92c-29.38,0-58.78-.67-88.14.16-43.39,1.22-78.46-34.55-78.11-77.91.43-53.23.14-106.46.1-159.69,0-45.69,38.15-76.79,76.36-76.49,60.84.48,121.68.12,182.51.13,2.42,0,4.85,0,7.26.14,3.75.2,5.69,2.41,5.75,6,.12,8.64.1,17.28,0,25.92,0,3.72-2,5.75-5.76,5.9-3.11.12-6.22.16-9.33.16l-116.14,0c-3.46,0-6.93-.11-10.37.14-23.69,1.73-40.46,15.86-45.64,38.34a50.09,50.09,0,0,0,23.65,55.11c7.12,4.18,14.77,5.4,22.88,5.39,41.83-.09,83.65,0,125.48,0,2.42,0,4.85-.13,7.26,0,6.52.42,7.76,1.49,8,8.14.25,7.94,0,15.9.07,23.85,0,5.19-2.42,7.64-7.59,7.52-2.42-.06-4.84,0-7.26,0H-80.49c-2.77,0-5.54-.06-8.3,0-8.83.28-10.44,1.58-10.67,10.21-.29,10.71-.18,21.43-.08,32.14.05,5.52-.16,11.15.83,16.53,4.51,24.4,23.4,39.77,49.44,40,27,.29,53.92.08,80.88.09,15.56,0,31.11-.08,46.67,0,10.09.07,10.47.54,10.59,10.58q.1,8.29,0,16.59c-.13,10.07-.72,10.73-10.44,10.89-8,.13-15.9,0-23.85,0q-35.77,0-71.55,0Z" transform="translate(548.84 -218.92)"/><path class="cls-1" d="M300.68,532.9c-30.06,0-60.13-.38-90.19.11s-64.68-21.2-73.16-59.11a76.67,76.67,0,0,1-1.49-16.45c-.1-54.25.48-108.52-.25-162.76-.52-39.1,33-76.18,76.9-75.73,60.47.61,121,.15,181.43.16,2.42,0,4.84,0,7.25.15,3.29.17,5.17,2,5.21,5.25q.18,13.48,0,26.95c0,3.78-2.33,5.56-6,5.66-3.11.07-6.22.12-9.33.12-39.39,0-78.79-.17-118.18.17a70.91,70.91,0,0,0-22.28,3.6c-19.54,6.78-30.89,23.48-30.94,44.46-.12,46.66.39,93.32-.21,140-.33,25.46,19.41,49,49.17,49.31,20.74.23,41.47.05,62.21.06s41.47,0,62.2,0c13.48,0,13.49.05,13.51,14,0,5.88-.05,11.75-.07,17.63,0,4.19-2,6.43-6.29,6.45-2.77,0-5.53.08-8.3.08q-45.62,0-91.23,0Z" transform="translate(548.84 -218.92)"/><path class="cls-1" d="M-388.89,219.11h145.13c2.76,0,5.52.06,8.29.07,4.74,0,6.91,2.51,6.92,7.1,0,7.26.18,14.52,0,21.77-.22,7.84-1.3,9-9.14,9.13-15.2.19-30.41-.1-45.61.13-8.94.14-18.05,0-26.78,1.59-23.69,4.34-38.52,22.66-38.55,46.83q-.12,104.7,0,209.4c0,2.42,0,4.84,0,7.26-.19,9.8-.72,10.45-10.79,10.5q-30.58.15-61.17,0c-11.22,0-11.44-.26-11.44-11.8q0-123.36,0-246.73c0-17.1,0-17.11-17.07-17.12h-84c-2.77,0-5.53-.08-8.3-.07-4.53,0-7.29-2-7.34-6.73q-.12-12.44,0-24.87c0-4.12,2.22-6.37,6.46-6.4,2.77,0,5.53-.07,8.3-.07Z" transform="translate(548.84 -218.92)"/></svg>