<svg id="Layer_1" data-name="Layer 1" xmlns="http://www.w3.org/2000/svg" viewBox="0 0 76.36 76.36"><defs><style>.cls-1{fill:#27348b;}.cls-2{fill:#fff;}</style></defs><path class="cls-1" d="M278.21,508.74v7.16a8.28,8.28,0,0,0-.12,1,63.12,63.12,0,0,1-1.44,13.5c-2.27,9.43-8,15.58-17.39,18.16a55.27,55.27,0,0,1-12.93,1.65c-.75,0-1.51.12-2.26.18h-7.92c-.86-.06-1.71-.15-2.57-.18a57,57,0,0,1-12.2-1.54c-8.47-2.2-14.29-7.29-17.08-15.68a46,46,0,0,1-2.08-13.48c-.12-4.77-.1-9.55,0-14.33a50.44,50.44,0,0,1,1.49-11.59c2-7.71,6.48-13.34,13.92-16.42,4.9-2,10.1-2.61,15.33-2.78,4.49-.15,9-.09,13.48,0a52.32,52.32,0,0,1,11.69,1.38c9.06,2.18,15.23,7.54,18,16.56A52,52,0,0,1,278,505.33C278.08,506.47,278.15,507.6,278.21,508.74Zm-61.16,3.55v13.34c0,1.3,0,1.3,1.33,1.3h4.73c1.18,0,1.19,0,1.19-1.2,0-7,0-13.92,0-20.89,0-.72.2-1,1-1,2.84,0,5.69,0,8.53,0,1.5,0,3,0,4.49.17,2.64.25,3.88,1.43,4.25,4a29,29,0,0,1,.28,3.95c0,4.62,0,9.24,0,13.87,0,.93.07,1,1,1H249c1,0,1.06-.1,1.06-1,0-5.14,0-10.27,0-15.4a38.71,38.71,0,0,0-.6-6,7,7,0,0,0-6-6.18,31.75,31.75,0,0,0-5.13-.59c-6.7-.07-13.41,0-20.12,0-1,0-1.06.05-1.06,1.09Zm45.69,0V498.77c0-1,0-1.06-1.09-1.07-1.75,0-3.5,0-5.25,0-.66,0-.92.25-.92.89q0,13.71,0,27.42c0,.69.29.94,1,.93,1.75,0,3.5,0,5.25,0,1,0,1-.06,1-1Zm-33,5.56c0,2.66,0,5.32,0,8,0,.92.14,1,1.06,1h5.48c.93,0,1.06-.13,1.07-1V510c0-.91-.17-1.08-1.07-1.08h-5.4c-1,0-1.14.15-1.14,1.15C229.74,512.66,229.75,515.27,229.75,517.89Z" transform="translate(-201.86 -474)"/><path class="cls-2" d="M278.21,508.74c-.06-1.14-.13-2.27-.19-3.41a52,52,0,0,0-1.89-13.06c-2.77-9-8.94-14.38-18-16.56a52.32,52.32,0,0,0-11.69-1.38c-4.49-.06-9-.12-13.48,0-5.23.17-10.43.75-15.33,2.78-7.44,3.08-11.91,8.71-13.92,16.42a50.44,50.44,0,0,0-1.49,11.59c-.1,4.78-.12,9.56,0,14.33A46,46,0,0,0,204.3,533c2.79,8.39,8.61,13.48,17.08,15.68a57,57,0,0,0,12.2,1.54c.86,0,1.71.12,2.57.18H201.86V474h76.35Z" transform="translate(-201.86 -474)"/><path class="cls-2" d="M244.07,550.36c.75-.06,1.51-.15,2.26-.18a55.27,55.27,0,0,0,12.93-1.65c9.42-2.58,15.12-8.73,17.39-18.16a63.12,63.12,0,0,0,1.44-13.5,8.28,8.28,0,0,1,.12-1v34.46Z" transform="translate(-201.86 -474)"/><path class="cls-2" d="M217.05,512.29V498.8c0-1,0-1.1,1.06-1.09,6.71,0,13.42,0,20.12,0a31.75,31.75,0,0,1,5.13.59,7,7,0,0,1,6,6.18,38.71,38.71,0,0,1,.6,6c.09,5.13,0,10.26,0,15.4,0,.94-.1,1-1.06,1h-5.18c-.94,0-1-.07-1-1,0-4.63,0-9.25,0-13.87a29,29,0,0,0-.28-3.95c-.37-2.61-1.61-3.79-4.25-4-1.49-.14-3-.16-4.49-.17-2.84,0-5.69,0-8.53,0-.75,0-1,.24-1,1,0,7,0,13.93,0,20.89,0,1.18,0,1.2-1.19,1.2h-4.73c-1.33,0-1.33,0-1.33-1.3Z" transform="translate(-201.86 -474)"/><path class="cls-2" d="M262.74,512.33v13.55c0,1-.06,1-1,1-1.75,0-3.5,0-5.25,0-.68,0-1-.24-1-.93q0-13.71,0-27.42c0-.64.26-.9.92-.89,1.75,0,3.5,0,5.25,0,1.05,0,1.09,0,1.09,1.07Z" transform="translate(-201.86 -474)"/><path class="cls-2" d="M229.75,517.89c0-2.62,0-5.23,0-7.85,0-1,.15-1.15,1.14-1.15h5.4c.9,0,1.06.17,1.07,1.08v15.91c0,.92-.14,1-1.07,1h-5.48c-.92,0-1.06-.13-1.06-1C229.74,523.21,229.75,520.55,229.75,517.89Z" transform="translate(-201.86 -474)"/></svg>