<svg width="200" height="118" viewBox="0 0 200 118" fill="none" xmlns="http://www.w3.org/2000/svg">
<g clip-path="url(#clip0_64_59)">
<path d="M60 39.3333V68.8333C60 75.3889 63.3333 78.6667 70 78.6667H110C116.667 78.6667 120 75.3889 120 68.8333V39.3333C120 32.7778 116.667 29.5 110 29.5H70C63.3333 29.5 60 32.7778 60 39.3333Z" fill="#9C27B0"/>
<path d="M65.4004 77.4844L72.6004 90.8577L75.4004 78.6644" fill="#9C27B0"/>
<path d="M100 39.3359H88C85.7909 39.3359 84 41.097 84 43.2693V70.8026C84 72.9749 85.7909 74.7359 88 74.7359H100C102.209 74.7359 104 72.9749 104 70.8026V43.2693C104 41.097 102.209 39.3359 100 39.3359Z" fill="#F3E5F5" stroke="#D5B0DB" stroke-width="3"/>
<path d="M101.2 43.2656H86.8C86.3582 43.2656 86 43.6648 86 44.1572V69.1207C86 69.6131 86.3582 70.0123 86.8 70.0123H101.2C101.642 70.0123 102 69.6131 102 69.1207V44.1572C102 43.6648 101.642 43.2656 101.2 43.2656Z" fill="#F8F0FC"/>
<path d="M94 1.96458C95.1046 1.96458 96 1.08408 96 -0.00208342C96 -1.08824 95.1046 -1.96875 94 -1.96875C92.8954 -1.96875 92 -1.08824 92 -0.00208342C92 1.08408 92.8954 1.96458 94 1.96458Z" fill="#9C27B0"/>
<path d="M79.9928 94.2266L81.6831 84.0447H85.7001C86.4691 84.0447 87.1005 84.1922 87.5943 84.4872C88.0915 84.7789 88.4395 85.1849 88.6384 85.7053C88.8405 86.2223 88.8869 86.8189 88.7776 87.495C88.6649 88.1745 88.4196 88.7727 88.0418 89.2898C87.6672 89.8035 87.18 90.2045 86.5801 90.4929C85.9802 90.7812 85.2875 90.9254 84.502 90.9254H81.9416L82.225 89.2003H84.4374C84.855 89.2003 85.2113 89.129 85.5063 88.9865C85.8046 88.8407 86.0415 88.6402 86.2172 88.3849C86.3929 88.1264 86.5072 87.8298 86.5602 87.495C86.6166 87.1536 86.5983 86.857 86.5055 86.6051C86.4127 86.3532 86.2421 86.1577 85.9935 86.0185C85.7482 85.8759 85.4184 85.8047 85.0041 85.8047H83.5524L82.1455 94.2266H79.9928ZM91.8811 89.8118L91.1453 94.2266H89.0324L90.7227 84.0447H92.776L92.1396 87.9375H92.2241C92.4694 87.4867 92.8058 87.1338 93.2334 86.8786C93.6609 86.62 94.1664 86.4908 94.7497 86.4908C95.28 86.4908 95.7225 86.6068 96.0771 86.8388C96.4351 87.0675 96.6886 87.3973 96.8378 87.8281C96.9869 88.2557 97.0118 88.7678 96.9123 89.3643L96.097 94.2266H93.9841L94.7298 89.7422C94.806 89.2715 94.7447 88.9053 94.5459 88.6435C94.3503 88.3816 94.0387 88.2507 93.6112 88.2507C93.3228 88.2507 93.0577 88.312 92.8157 88.4347C92.5738 88.5573 92.37 88.7363 92.2042 88.9716C92.0418 89.2036 91.9341 89.4837 91.8811 89.8118ZM101.214 94.3757C100.435 94.3757 99.7905 94.21 99.28 93.8786C98.7696 93.5438 98.41 93.0798 98.2012 92.4865C97.9957 91.8899 97.9576 91.1955 98.0869 90.4034C98.2128 89.6212 98.4747 88.9368 98.8724 88.3501C99.2701 87.7635 99.7756 87.3078 100.389 86.983C101.002 86.6548 101.693 86.4908 102.462 86.4908C103.237 86.4908 103.88 86.6581 104.391 86.9929C104.901 87.3243 105.261 87.7884 105.47 88.3849C105.678 88.9815 105.718 89.6759 105.589 90.468C105.46 91.2469 105.195 91.9297 104.794 92.5163C104.393 93.103 103.887 93.5604 103.277 93.8885C102.667 94.2133 101.98 94.3757 101.214 94.3757ZM101.423 92.7351C101.781 92.7351 102.097 92.634 102.372 92.4318C102.651 92.2263 102.881 91.9479 103.063 91.5966C103.249 91.242 103.378 90.8409 103.451 90.3935C103.524 89.9527 103.529 89.5616 103.466 89.2202C103.403 88.8755 103.271 88.6037 103.068 88.4048C102.87 88.206 102.596 88.1065 102.248 88.1065C101.89 88.1065 101.572 88.2093 101.294 88.4148C101.015 88.617 100.785 88.8954 100.602 89.25C100.42 89.6046 100.293 90.0073 100.22 90.4581C100.15 90.8956 100.145 91.2867 100.205 91.6314C100.264 91.9728 100.395 92.2429 100.598 92.4418C100.8 92.6373 101.075 92.7351 101.423 92.7351ZM109.203 89.8118L108.468 94.2266H106.355L107.627 86.5902H109.641L109.422 87.9375H109.507C109.749 87.4901 110.09 87.1371 110.531 86.8786C110.975 86.62 111.48 86.4908 112.047 86.4908C112.577 86.4908 113.02 86.6068 113.375 86.8388C113.732 87.0708 113.984 87.4006 114.13 87.8281C114.279 88.2557 114.304 88.7678 114.205 89.3643L113.389 94.2266H111.272L112.022 89.7422C112.098 89.2749 112.039 88.9103 111.843 88.6484C111.651 88.3833 111.341 88.2507 110.914 88.2507C110.629 88.2507 110.367 88.312 110.128 88.4347C109.889 88.5573 109.689 88.7363 109.526 88.9716C109.367 89.2036 109.26 89.4837 109.203 89.8118ZM118.509 94.3757C117.727 94.3757 117.079 94.2166 116.565 93.8984C116.051 93.5769 115.69 93.1229 115.481 92.5362C115.276 91.9463 115.241 91.2486 115.377 90.4432C115.509 89.6577 115.776 88.9683 116.177 88.375C116.582 87.7817 117.089 87.3194 117.699 86.9879C118.308 86.6565 118.988 86.4908 119.737 86.4908C120.241 86.4908 120.696 86.572 121.104 86.7344C121.515 86.8935 121.856 87.1354 122.128 87.4602C122.4 87.7817 122.586 88.1844 122.685 88.6683C122.788 89.1522 122.786 89.719 122.68 90.3686L122.586 90.9503H116.142L116.346 89.6378H120.801C120.851 89.3329 120.831 89.0627 120.741 88.8274C120.652 88.5921 120.503 88.4081 120.294 88.2756C120.085 88.1397 119.828 88.0717 119.523 88.0717C119.212 88.0717 118.92 88.148 118.648 88.3004C118.376 88.4529 118.148 88.6534 117.962 88.902C117.78 89.1473 117.662 89.4141 117.609 89.7024L117.375 91.005C117.309 91.406 117.322 91.7391 117.415 92.0043C117.511 92.2694 117.677 92.4683 117.912 92.6009C118.148 92.7301 118.446 92.7947 118.807 92.7947C119.043 92.7947 119.263 92.7616 119.468 92.6953C119.677 92.629 119.863 92.5312 120.025 92.402C120.188 92.2694 120.32 92.1054 120.423 91.9098L122.357 92.0391C122.178 92.5097 121.906 92.9207 121.542 93.272C121.177 93.62 120.738 93.8918 120.224 94.0874C119.714 94.2796 119.142 94.3757 118.509 94.3757ZM123.469 94.2266L125.16 84.0447H129.177C129.946 84.0447 130.577 84.1922 131.071 84.4872C131.568 84.7789 131.916 85.1849 132.115 85.7053C132.317 86.2223 132.364 86.8189 132.254 87.495C132.141 88.1745 131.896 88.7727 131.518 89.2898C131.144 89.8035 130.657 90.2045 130.057 90.4929C129.457 90.7812 128.764 90.9254 127.979 90.9254H125.418L125.702 89.2003H127.914C128.332 89.2003 128.688 89.129 128.983 88.9865C129.281 88.8407 129.518 88.6402 129.694 88.3849C129.869 88.1264 129.984 87.8298 130.037 87.495C130.093 87.1536 130.075 86.857 129.982 86.6051C129.889 86.3532 129.719 86.1577 129.47 86.0185C129.225 85.8759 128.895 85.8047 128.481 85.8047H127.029L125.622 94.2266H123.469ZM134.447 94.3707C133.963 94.3707 133.543 94.2862 133.189 94.1172C132.837 93.9448 132.579 93.6896 132.413 93.3516C132.248 93.0135 132.206 92.5942 132.289 92.0938C132.362 91.6695 132.499 91.3149 132.702 91.0298C132.907 90.7415 133.157 90.5095 133.452 90.3338C133.747 90.1581 134.074 90.0239 134.432 89.9311C134.793 89.8383 135.166 89.7753 135.55 89.7422C135.994 89.6958 136.356 89.651 136.634 89.608C136.916 89.5649 137.126 89.5036 137.265 89.424C137.405 89.3411 137.489 89.2185 137.519 89.0561V89.0263C137.569 88.7147 137.511 88.4728 137.345 88.3004C137.183 88.1248 136.922 88.0369 136.564 88.0369C136.187 88.0369 135.865 88.1198 135.6 88.2855C135.338 88.4512 135.151 88.6617 135.038 88.9169L133.109 88.7578C133.282 88.2938 133.542 87.8928 133.89 87.5547C134.241 87.2133 134.664 86.9515 135.158 86.7692C135.651 86.5836 136.205 86.4908 136.818 86.4908C137.242 86.4908 137.638 86.5405 138.006 86.6399C138.377 86.7393 138.697 86.8935 138.966 87.1023C139.238 87.3111 139.433 87.5795 139.552 87.9077C139.675 88.2325 139.7 88.6219 139.627 89.076L138.767 94.2266H136.758L136.937 93.1676H136.878C136.715 93.4062 136.516 93.6167 136.281 93.799C136.046 93.978 135.776 94.1188 135.471 94.2216C135.166 94.321 134.824 94.3707 134.447 94.3707ZM135.297 92.9091C135.605 92.9091 135.888 92.8478 136.147 92.7251C136.409 92.5992 136.624 92.4302 136.793 92.218C136.966 92.0059 137.075 91.7656 137.121 91.4972L137.251 90.6868C137.184 90.7299 137.088 90.768 136.962 90.8011C136.84 90.8343 136.705 90.8658 136.56 90.8956C136.417 90.9221 136.273 90.947 136.127 90.9702C135.981 90.9901 135.85 91.0099 135.734 91.0298C135.479 91.0663 135.25 91.1243 135.048 91.2038C134.846 91.2834 134.682 91.3911 134.556 91.527C134.43 91.6596 134.352 91.8253 134.322 92.0241C134.276 92.3125 134.344 92.5329 134.526 92.6854C134.712 92.8345 134.969 92.9091 135.297 92.9091ZM144.218 84.0447L142.528 94.2266H140.41L142.1 84.0447H144.218Z" fill="#9C27B0"/>
</g>
<defs>
<clipPath id="clip0_64_59">
<rect width="200" height="118" fill="white"/>
</clipPath>
</defs>
</svg>
