<svg id="Layer_1" data-name="Layer 1" xmlns="http://www.w3.org/2000/svg" viewBox="0 0 123.64 95.24"><defs><style>.cls-1{fill:#9c27b0;}.cls-2{fill:#f3e5f5;stroke:#d5b0db;stroke-width:3px;}.cls-3{fill:#f8f0fc;}</style></defs><path class="cls-1" d="M34.18,23.29V66.6Q34.18,81,48.86,81h58.73q14.67,0,14.68-14.43V23.29q0-14.44-14.68-14.44H48.86Q34.19,8.85,34.18,23.29Z" transform="translate(-34.18 -8.85)"/><path class="cls-1" d="M42.11,79.3,52.68,98.93,56.79,81" transform="translate(-34.18 -8.85)"/><path class="cls-2" d="M92.91,23.29H75.29a5.83,5.83,0,0,0-5.87,5.78V69.49a5.82,5.82,0,0,0,5.87,5.77H92.91a5.82,5.82,0,0,0,5.87-5.77V29.07A5.83,5.83,0,0,0,92.91,23.29Z" transform="translate(-34.18 -8.85)"/><path class="cls-3" d="M94.67,29.06H73.53a1.25,1.25,0,0,0-1.18,1.31V67a1.25,1.25,0,0,0,1.18,1.31H94.67A1.25,1.25,0,0,0,95.84,67V30.37A1.25,1.25,0,0,0,94.67,29.06Z" transform="translate(-34.18 -8.85)"/><path class="cls-1" d="M63.53,103.88,66,88.93h5.9a5.27,5.27,0,0,1,2.78.65,3.5,3.5,0,0,1,1.54,1.79,5,5,0,0,1,.2,2.62,6.21,6.21,0,0,1-1.08,2.64,5.63,5.63,0,0,1-2.15,1.76,6.84,6.84,0,0,1-3,.64H66.39l.42-2.53h3.25a3.6,3.6,0,0,0,1.57-.32,2.64,2.64,0,0,0,1-.88,3,3,0,0,0,.5-1.31,2.41,2.41,0,0,0-.08-1.3,1.54,1.54,0,0,0-.75-.86,2.86,2.86,0,0,0-1.45-.32H68.76l-2.07,12.37ZM81,97.39l-1.08,6.49H76.8l2.49-14.95h3l-.93,5.71h.12A3.94,3.94,0,0,1,83,93.09a4.23,4.23,0,0,1,2.23-.57,3.49,3.49,0,0,1,2,.51,2.76,2.76,0,0,1,1.11,1.45,4.52,4.52,0,0,1,.11,2.26l-1.19,7.14H84.07l1.1-6.59a2.05,2.05,0,0,0-.27-1.61,1.62,1.62,0,0,0-1.37-.58,2.52,2.52,0,0,0-1.17.27,2.43,2.43,0,0,0-.9.79A2.8,2.8,0,0,0,81,97.39Zm13.7,6.71a5.16,5.16,0,0,1-2.84-.73,4,4,0,0,1-1.59-2.05,6.27,6.27,0,0,1-.16-3.06,7.39,7.39,0,0,1,1.15-3,6.14,6.14,0,0,1,2.23-2,6.35,6.35,0,0,1,3-.72,5,5,0,0,1,2.83.74,3.87,3.87,0,0,1,1.59,2,6.27,6.27,0,0,1,.17,3.06,7.47,7.47,0,0,1-1.17,3,6.14,6.14,0,0,1-5.25,2.73Zm.3-2.41a2.3,2.3,0,0,0,1.4-.45,3.4,3.4,0,0,0,1-1.22A5.75,5.75,0,0,0,98,98.25a4.75,4.75,0,0,0,0-1.72,2.13,2.13,0,0,0-.58-1.2,1.62,1.62,0,0,0-1.2-.44,2.28,2.28,0,0,0-1.4.45,3.47,3.47,0,0,0-1,1.23,5.93,5.93,0,0,0-.56,1.77,5.31,5.31,0,0,0,0,1.73,2.15,2.15,0,0,0,.57,1.19A1.7,1.7,0,0,0,95,101.69Zm11.43-4.3-1.08,6.49h-3.1l1.86-11.21h3l-.32,2h.12a4,4,0,0,1,1.51-1.55,4.32,4.32,0,0,1,2.22-.57,3.49,3.49,0,0,1,2,.51,2.7,2.7,0,0,1,1.11,1.45,4.52,4.52,0,0,1,.11,2.26l-1.2,7.14h-3.11l1.1-6.59a2,2,0,0,0-.26-1.6,1.56,1.56,0,0,0-1.36-.59,2.54,2.54,0,0,0-1.16.27,2.46,2.46,0,0,0-.88.79A3.07,3.07,0,0,0,106.42,97.39Zm13.66,6.71a5.34,5.34,0,0,1-2.86-.71,3.78,3.78,0,0,1-1.59-2,6.18,6.18,0,0,1-.15-3.07,7.65,7.65,0,0,1,1.17-3,6.33,6.33,0,0,1,2.24-2,6.1,6.1,0,0,1,3-.73,5.37,5.37,0,0,1,2,.36,3.67,3.67,0,0,1,1.5,1.06,4,4,0,0,1,.82,1.78,6.71,6.71,0,0,1,0,2.49l-.14.86H116.6l.3-1.93h6.54a2.23,2.23,0,0,0-.08-1.19,1.61,1.61,0,0,0-.66-.81,2,2,0,0,0-1.13-.3,2.54,2.54,0,0,0-1.29.34,3,3,0,0,0-1,.88,2.68,2.68,0,0,0-.52,1.17l-.35,1.92a3.13,3.13,0,0,0,.06,1.46,1.63,1.63,0,0,0,.73.88,2.75,2.75,0,0,0,1.32.28,3.08,3.08,0,0,0,1-.14,2.52,2.52,0,0,0,.81-.43,2.34,2.34,0,0,0,.59-.73l2.84.19a4.83,4.83,0,0,1-1.2,1.81,5.58,5.58,0,0,1-1.93,1.2A7.16,7.16,0,0,1,120.08,104.1Zm7.28-.22,2.48-14.95h5.9a5.27,5.27,0,0,1,2.78.65,3.43,3.43,0,0,1,1.53,1.79,4.9,4.9,0,0,1,.21,2.62,6.21,6.21,0,0,1-1.08,2.64A5.63,5.63,0,0,1,137,98.39,6.87,6.87,0,0,1,134,99h-3.76l.42-2.53h3.25a3.6,3.6,0,0,0,1.57-.32,2.71,2.71,0,0,0,1-.88A3.14,3.14,0,0,0,137,94a2.52,2.52,0,0,0-.08-1.3,1.54,1.54,0,0,0-.75-.86,2.86,2.86,0,0,0-1.45-.32h-2.13l-2.07,12.37Zm16.12.21a4.39,4.39,0,0,1-1.85-.37,2.41,2.41,0,0,1-1.14-1.13,3,3,0,0,1-.18-1.84,3.91,3.91,0,0,1,.6-1.57,3.72,3.72,0,0,1,1.11-1,5.52,5.52,0,0,1,1.43-.59,9.8,9.8,0,0,1,1.65-.28c.65-.07,1.18-.13,1.59-.19a3.09,3.09,0,0,0,.92-.27.81.81,0,0,0,.38-.54v-.05a1.19,1.19,0,0,0-.26-1.06,1.49,1.49,0,0,0-1.15-.39,2.64,2.64,0,0,0-1.41.36,2.17,2.17,0,0,0-.83.93l-2.83-.23a4.88,4.88,0,0,1,1.15-1.77,5.26,5.26,0,0,1,1.86-1.15,6.94,6.94,0,0,1,2.44-.41,6.48,6.48,0,0,1,1.74.22,3.71,3.71,0,0,1,1.41.68A2.49,2.49,0,0,1,151,94.6a3.29,3.29,0,0,1,.11,1.71l-1.26,7.57h-2.95l.26-1.56h-.08a4.31,4.31,0,0,1-.88.93,4.2,4.2,0,0,1-1.19.62A5,5,0,0,1,143.48,104.09Zm1.24-2.15a2.86,2.86,0,0,0,1.25-.27,2.6,2.6,0,0,0,.95-.74,2.33,2.33,0,0,0,.48-1.06l.19-1.19a1.73,1.73,0,0,1-.42.17l-.59.14-.64.11-.57.08a4.65,4.65,0,0,0-1,.26,1.88,1.88,0,0,0-.72.47,1.35,1.35,0,0,0-.35.73,1,1,0,0,0,.3,1A1.77,1.77,0,0,0,144.72,101.94Zm13.1-13-2.48,14.95h-3.11l2.48-14.95Z" transform="translate(-34.18 -8.85)"/></svg>